<svg width="224" height="92" viewBox="0 0 224 92" fill="none" xmlns="http://www.w3.org/2000/svg">
<g filter="url(#filter0_d_5_26)">
<path d="M34.32 0.240002C39.6533 0.240002 44.4267 2.50667 48.64 7.04C52.8533 11.52 54.96 16.4533 54.96 21.84C54.96 27.1733 53.68 32.6933 51.12 38.4C48.56 44.0533 45.2 48.7467 41.04 52.48C41.4667 53.7067 42.0267 55.2533 42.72 57.12C43.4133 58.9867 43.9467 60.4267 44.32 61.44C44.6933 62.5067 45.0933 63.68 45.52 64.96C46.2667 67.36 46.64 69.1733 46.64 70.4C46.64 71.68 46.4267 72.56 46 73.04C45.5733 73.52 44.8 73.76 43.68 73.76C40.48 73.76 36.7733 68.4 32.56 57.68C30.2667 58.5333 28 58.96 25.76 58.96C21.6 58.96 17.2533 56.9867 12.72 53.04C8.24 49.04 6 45.2267 6 41.6C6 36.6933 6.93333 31.68 8.8 26.56C10.6667 21.3867 12.9867 16.9333 15.76 13.2C18.5867 9.41334 21.68 6.32 25.04 3.92C28.4 1.46667 31.4933 0.240002 34.32 0.240002ZM35.28 10.72H35.04C34.08 11.4667 33.6 12.24 33.6 13.04C33.6 21.8933 34.8267 30.9867 37.28 40.32C41.4933 34.3467 43.6 28.6133 43.6 23.12C43.6 19.28 42.6667 16.2667 40.8 14.08C38.9867 11.84 37.1467 10.72 35.28 10.72ZM23.76 23.04V22.08C19.76 28.8533 17.76 35.36 17.76 41.6C17.76 43.68 18.7467 45.4933 20.72 47.04C22.7467 48.5333 24.3467 49.28 25.52 49.28C26.6933 49.28 27.9467 48.9067 29.28 48.16C27.68 43.0933 26.3467 38.16 25.28 33.36C24.2667 28.56 23.76 25.12 23.76 23.04Z" fill="#202020"/>
<path d="M98.0944 0C99.641 0 101.348 0.800001 103.214 2.4C105.134 4 106.094 5.30667 106.094 6.32C106.094 9.68 105.294 15.52 103.694 23.84C102.148 32.1067 100.148 40.0267 97.6944 47.6C95.241 55.1733 93.0277 58.96 91.0544 58.96C90.2544 58.96 89.2144 58.5333 87.9344 57.68C86.6544 56.7733 85.801 55.7333 85.3744 54.56C84.9477 53.3333 84.121 50.8267 82.8944 47.04C80.0677 38.3467 77.401 31.1467 74.8944 25.44C74.521 27.04 74.0144 29.3067 73.3744 32.24C72.7877 35.1733 72.3077 37.4933 71.9344 39.2C71.561 40.8533 71.1077 42.88 70.5744 45.28C70.041 47.6267 69.561 49.4933 69.1344 50.88C68.761 52.2667 68.3344 53.6533 67.8544 55.04C67.001 57.6533 66.201 58.96 65.4544 58.96C64.3877 58.96 63.001 58 61.2944 56.08C59.5877 54.1067 58.7344 52.4267 58.7344 51.04C58.7344 49.6 60.2544 42.16 63.2944 28.72C66.3877 15.28 68.0677 6.85334 68.3344 3.44C68.4944 1.41333 69.1077 0.4 70.1744 0.4C71.081 0.4 72.2277 0.933334 73.6144 2C75.0544 3.06667 76.281 4.37333 77.2944 5.92C78.361 7.41334 80.2544 12.3467 82.9744 20.72C85.6944 29.0933 87.8544 35.0933 89.4544 38.72C91.5344 32.5333 93.4544 23.2 95.2144 10.72C95.9077 5.76 96.361 2.74667 96.5744 1.68C96.7877 0.560001 97.2944 0 98.0944 0Z" fill="#202020"/>
<path d="M119.923 50.88C122.803 49.6 125.31 47.0133 127.443 43.12C129.576 39.2267 130.643 35.5733 130.643 32.16C130.643 28.7467 130.163 26.4 129.203 25.12C126.91 26.4533 124.616 29.2533 122.323 33.52C120.083 37.7867 118.963 41.5467 118.963 44.8C118.963 48 119.283 50.0267 119.923 50.88ZM108.243 45.6C108.243 38.9333 110.296 32.6133 114.403 26.64C118.563 20.6667 122.67 17.68 126.723 17.68C130.776 17.68 134.19 19.12 136.963 22C139.736 24.8267 141.123 28.2667 141.123 32.32C141.123 36.32 140.163 40.4 138.243 44.56C136.323 48.72 133.63 52.1867 130.163 54.96C126.696 57.68 122.99 59.04 119.043 59.04C116.11 59.04 113.576 57.7333 111.443 55.12C109.31 52.5067 108.243 49.3333 108.243 45.6Z" fill="#202020"/>
<path d="M165.848 27.28C165.421 28.72 164.781 30.7467 163.928 33.36C163.128 35.92 162.114 39.1467 160.887 43.04C159.714 46.9333 159.128 49.0133 159.128 49.28C159.128 49.4933 159.554 49.6 160.408 49.6C161.314 49.6 163.421 49.0133 166.728 47.84C170.034 46.6133 171.981 46 172.568 46C173.901 46 174.568 46.9067 174.568 48.72C174.568 50.5333 172.781 52.72 169.208 55.28C165.634 57.7867 161.901 59.04 158.008 59.04C156.301 59.04 154.274 58.1067 151.928 56.24C149.581 54.3733 148.408 52.48 148.408 50.56C148.408 48.96 149.207 45.6 150.807 40.48C152.461 35.3067 153.581 31.76 154.167 29.84C152.087 30.4267 150.514 30.72 149.447 30.72C148.381 30.72 147.261 30 146.087 28.56C144.914 27.0667 144.327 25.6533 144.327 24.32C144.327 22.6133 148.461 21.1733 156.727 20C157.741 15.04 158.247 10.7467 158.247 7.12C158.247 5.52 159.048 4.72 160.648 4.72C162.034 4.72 163.794 5.57333 165.928 7.28C168.114 8.93334 169.208 10.5867 169.208 12.24C169.208 13.84 168.861 16.1067 168.167 19.04C170.727 18.9333 172.674 18.88 174.008 18.88C178.008 18.88 180.008 19.7867 180.008 21.6C180.008 22.7733 178.834 23.7867 176.488 24.64C174.194 25.44 170.648 26.32 165.848 27.28Z" fill="#202020"/>
<path d="M217.061 32.72C217.061 35.3333 215.275 37.68 211.701 39.76C208.181 41.84 204.555 42.88 200.821 42.88C197.088 42.88 194.021 42.6133 191.621 42.08C191.141 43.52 190.901 44.96 190.901 46.4C190.901 47.84 191.141 48.88 191.621 49.52C192.101 50.1067 193.301 50.4 195.221 50.4C199.221 50.4 202.635 50.0267 205.461 49.28C208.341 48.5333 209.835 48.16 209.941 48.16C212.128 48.16 213.221 48.88 213.221 50.32C213.221 52.4 211.488 54.3733 208.021 56.24C204.608 58.1067 200.635 59.04 196.101 59.04C191.621 59.04 188.021 57.6267 185.301 54.8C182.581 51.9733 181.221 48.64 181.221 44.8C181.221 40.9067 182.341 36.8533 184.581 32.64C186.875 28.4267 189.728 24.9067 193.141 22.08C196.555 19.2 199.941 17.76 203.301 17.76C206.715 17.76 209.861 19.44 212.741 22.8C215.621 26.1067 217.061 29.4133 217.061 32.72ZM207.781 31.44C207.781 30.9067 207.221 30.1333 206.101 29.12C204.981 28.1067 203.915 27.6 202.901 27.6C201.941 27.6 200.688 28.32 199.141 29.76C197.595 31.1467 196.128 32.96 194.741 35.2C195.221 35.2533 195.915 35.28 196.821 35.28C204.128 35.28 207.781 34 207.781 31.44Z" fill="#202020"/>
</g>
<defs>
<filter id="filter0_d_5_26" x="0" y="0" width="223.061" height="91.76" filterUnits="userSpaceOnUse" color-interpolation-filters="sRGB">
<feFlood flood-opacity="0" result="BackgroundImageFix"/>
<feColorMatrix in="SourceAlpha" type="matrix" values="0 0 0 0 0 0 0 0 0 0 0 0 0 0 0 0 0 0 127 0" result="hardAlpha"/>
<feOffset dy="12"/>
<feGaussianBlur stdDeviation="3"/>
<feComposite in2="hardAlpha" operator="out"/>
<feColorMatrix type="matrix" values="0 0 0 0 0 0 0 0 0 0 0 0 0 0 0 0 0 0 0.25 0"/>
<feBlend mode="normal" in2="BackgroundImageFix" result="effect1_dropShadow_5_26"/>
<feBlend mode="normal" in="SourceGraphic" in2="effect1_dropShadow_5_26" result="shape"/>
</filter>
</defs>
</svg>
