<svg width="61" height="94" viewBox="0 0 61 94" fill="none" xmlns="http://www.w3.org/2000/svg">
<g filter="url(#filter0_d_5_2)">
<path d="M34.32 0C39.6533 0 44.4267 2.26667 48.64 6.8C52.8533 11.28 54.96 16.2133 54.96 21.6C54.96 26.9333 53.68 32.4533 51.12 38.16C48.56 43.8133 45.2 48.5067 41.04 52.24C41.4667 53.4667 42.0267 55.0133 42.72 56.88C43.4133 58.7467 43.9467 60.1867 44.32 61.2C44.6933 62.2667 45.0933 63.44 45.52 64.72C46.2667 67.12 46.64 68.9333 46.64 70.16C46.64 71.44 46.4267 72.32 46 72.8C45.5733 73.28 44.8 73.52 43.68 73.52C40.48 73.52 36.7733 68.16 32.56 57.44C30.2667 58.2933 28 58.72 25.76 58.72C21.6 58.72 17.2533 56.7467 12.72 52.8C8.24 48.8 6 44.9867 6 41.36C6 36.4533 6.93333 31.44 8.8 26.32C10.6667 21.1467 12.9867 16.6933 15.76 12.96C18.5867 9.17333 21.68 6.08 25.04 3.68C28.4 1.22667 31.4933 0 34.32 0ZM35.28 10.48H35.04C34.08 11.2267 33.6 12 33.6 12.8C33.6 21.6533 34.8267 30.7467 37.28 40.08C41.4933 34.1067 43.6 28.3733 43.6 22.88C43.6 19.04 42.6667 16.0267 40.8 13.84C38.9867 11.6 37.1467 10.48 35.28 10.48ZM23.76 22.8V21.84C19.76 28.6133 17.76 35.12 17.76 41.36C17.76 43.44 18.7467 45.2533 20.72 46.8C22.7467 48.2933 24.3467 49.04 25.52 49.04C26.6933 49.04 27.9467 48.6667 29.28 47.92C27.68 42.8533 26.3467 37.92 25.28 33.12C24.2667 28.32 23.76 24.88 23.76 22.8Z" fill="white"/>
</g>
<defs>
<filter id="filter0_d_5_2" x="0" y="0" width="60.96" height="93.52" filterUnits="userSpaceOnUse" color-interpolation-filters="sRGB">
<feFlood flood-opacity="0" result="BackgroundImageFix"/>
<feColorMatrix in="SourceAlpha" type="matrix" values="0 0 0 0 0 0 0 0 0 0 0 0 0 0 0 0 0 0 127 0" result="hardAlpha"/>
<feOffset dy="14"/>
<feGaussianBlur stdDeviation="3"/>
<feComposite in2="hardAlpha" operator="out"/>
<feColorMatrix type="matrix" values="0 0 0 0 0 0 0 0 0 0 0 0 0 0 0 0 0 0 0.25 0"/>
<feBlend mode="normal" in2="BackgroundImageFix" result="effect1_dropShadow_5_2"/>
<feBlend mode="normal" in="SourceGraphic" in2="effect1_dropShadow_5_2" result="shape"/>
</filter>
</defs>
</svg>
